<svg xmlns="http://www.w3.org/2000/svg" viewBox="0 0 1200 630" width="1200" height="630" font-family="-apple-system, BlinkMacSystemFont, 'Segoe UI', sans-serif">
  <defs>
    <clipPath id="screen-clip">
      <rect width="1200" height="630" rx="10"/>
    </clipPath>
    <linearGradient id="copilot-grad" x1="0%" y1="0%" x2="100%" y2="100%">
      <stop offset="0%" stop-color="#8957e5"/>
      <stop offset="100%" stop-color="#1f6feb"/>
    </linearGradient>
    <linearGradient id="avatar-grad" x1="0%" y1="0%" x2="100%" y2="100%">
      <stop offset="0%" stop-color="#8957e5"/>
      <stop offset="100%" stop-color="#1f6feb"/>
    </linearGradient>
  </defs>

  <g clip-path="url(#screen-clip)">

    <!-- ── Canvas ─────────────────────────────────────────────────────── -->
    <rect width="1200" height="630" fill="#0d1117"/>

    <!-- ── Top nav ────────────────────────────────────────────────────── -->
    <rect width="1200" height="52" fill="#161b22"/>
    <rect y="52" width="1200" height="1" fill="#30363d"/>
    <g transform="translate(20,13)">
      <path d="M12 0C5.37 0 0 5.37 0 12c0 5.31 3.435 9.795 8.205 11.385.6.105.825-.255.825-.57 0-.285-.015-1.23-.015-2.235-3.015.555-3.795-.735-4.035-1.41-.135-.345-.72-1.41-1.23-1.695-.42-.225-1.02-.78-.015-.795.945-.015 1.62.87 1.845 1.23 1.08 1.815 2.805 1.305 3.495.99.105-.78.42-1.305.765-1.605-2.67-.3-5.46-1.335-5.46-5.925 0-1.305.465-2.385 1.23-3.225-.12-.3-.54-1.53.12-3.18 0 0 1.005-.315 3.3 1.23.96-.27 1.98-.405 3-.405s2.04.135 3 .405c2.295-1.56 3.3-1.23 3.3-1.23.66 1.65.24 2.88.12 3.18.765.84 1.23 1.905 1.23 3.225 0 4.605-2.805 5.625-5.475 5.925.435.375.81 1.095.81 2.22 0 1.605-.015 2.895-.015 3.3 0 .315.225.69.825.57A12.02 12.02 0 0 0 24 12c0-6.63-5.37-12-12-12z" fill="#e6edf3"/>
    </g>
    <rect x="56" y="20" width="1" height="12" fill="#30363d"/>
    <text x="66" y="31" fill="#e6edf3" font-size="13" font-weight="600">Copilot Blueprint</text>
    <text x="218" y="31" fill="#8b949e" font-size="13">Dashboard</text>
    <text x="298" y="31" fill="#8b949e" font-size="13">Editor</text>
    <rect x="1058" y="14" width="122" height="26" rx="6" fill="url(#copilot-grad)"/>
    <text x="1119" y="31" fill="white" font-size="12" font-weight="500" text-anchor="middle">Connect GitHub</text>

    <!-- ── Editor sub-header ──────────────────────────────────────────── -->
    <rect y="53" width="1200" height="38" fill="#161b22"/>
    <rect y="91" width="1200" height="1" fill="#30363d"/>
    <text x="16" y="77" fill="#58a6ff" font-size="12">GitHub</text>
    <text x="63" y="77" fill="#6e7681" font-size="12">&#8250;</text>
    <text x="73" y="77" fill="#58a6ff" font-size="12">Copilot Blueprint</text>
    <text x="176" y="77" fill="#6e7681" font-size="12">&#8250;</text>
    <text x="186" y="77" fill="#e6edf3" font-size="12">New blueprint</text>
    <rect x="1060" y="60" width="120" height="24" rx="5" fill="none" stroke="#30363d" stroke-width="1"/>
    <text x="1120" y="76" fill="#3fb950" font-size="11" text-anchor="middle">Save blueprint</text>

    <!-- ── Left panel ─────────────────────────────────────────────────── -->
    <rect x="0" y="92" width="360" height="538" fill="#161b22"/>
    <rect x="360" y="92" width="1" height="538" fill="#30363d"/>

    <!-- Context bar -->
    <rect x="0" y="92" width="360" height="44" fill="#0d1117"/>
    <rect y="136" width="360" height="1" fill="#30363d"/>
    <text x="12" y="119" fill="#8b949e" font-size="11">Repository context</text>
    <rect x="108" y="108" width="130" height="20" rx="10" fill="#58a6ff" fill-opacity="0.08" stroke="#58a6ff" stroke-opacity="0.2" stroke-width="1"/>
    <text x="173" y="122" fill="#58a6ff" font-size="10" text-anchor="middle">chadradams/api-service</text>
    <rect x="244" y="108" width="70" height="20" rx="10" fill="#d29922" fill-opacity="0.08" stroke="#d29922" stroke-opacity="0.2" stroke-width="1"/>
    <text x="279" y="122" fill="#d29922" font-size="10" text-anchor="middle">Issue #42</text>

    <!-- Chat header -->
    <rect x="0" y="137" width="360" height="42" fill="#161b22"/>
    <rect y="179" width="360" height="1" fill="#30363d"/>
    <text x="12" y="163" fill="#e6edf3" font-size="13" font-weight="600">Blueprint chat</text>
    <rect x="228" y="147" width="120" height="22" rx="11" fill="#58a6ff" fill-opacity="0.09" stroke="#58a6ff" stroke-opacity="0.22" stroke-width="1"/>
    <rect x="237" y="153" width="10" height="10" rx="2" fill="#58a6ff" fill-opacity="0.7"/>
    <text x="253" y="162" fill="#58a6ff" font-size="10" font-weight="600">UI Wireframe · HTML</text>

    <!-- User message 1 -->
    <rect x="80" y="192" width="268" height="52" rx="10" fill="#1f6feb"/>
    <text x="214" y="213" fill="white" font-size="12" text-anchor="middle">Design a settings page for</text>
    <text x="214" y="229" fill="white" font-size="12" text-anchor="middle">the API service dashboard</text>
    <text x="340" y="252" fill="#6e7681" font-size="10" text-anchor="end">You</text>

    <!-- Assistant clarify -->
    <circle cx="22" cy="280" r="12" fill="url(#avatar-grad)"/>
    <text x="22" y="285" fill="white" font-size="9" font-weight="700" text-anchor="middle">Co</text>
    <rect x="42" y="266" width="303" height="42" rx="10" fill="#21262d"/>
    <text x="55" y="283" fill="#8b949e" font-size="11">Let me clarify a few things:</text>
    <text x="55" y="298" fill="#8b949e" font-size="11">Should this match your existing nav style?</text>

    <!-- User reply -->
    <rect x="80" y="322" width="268" height="30" rx="10" fill="#1f6feb"/>
    <text x="214" y="342" fill="white" font-size="12" text-anchor="middle">Yes, GitHub Primer dark theme</text>

    <!-- Artifact notification -->
    <rect x="42" y="366" width="303" height="56" rx="8" fill="#21262d" stroke="#3fb950" stroke-opacity="0.2" stroke-width="1"/>
    <rect x="42" y="366" width="3" height="56" rx="1" fill="#3fb950"/>
    <rect x="54" y="378" width="20" height="20" rx="4" fill="#3fb950" fill-opacity="0.12"/>
    <text x="64" y="391" fill="#3fb950" font-size="12" text-anchor="middle">&#9670;</text>
    <text x="82" y="384" fill="#e6edf3" font-size="11" font-weight="600">Wireframe generated</text>
    <text x="82" y="399" fill="#8b949e" font-size="10">UI Wireframe · HTML · 94 lines</text>
    <circle cx="328" cy="387" r="8" fill="#3fb950" fill-opacity="0.12"/>
    <text x="328" y="391" fill="#3fb950" font-size="11" text-anchor="middle">&#10003;</text>

    <!-- User refine -->
    <rect x="80" y="438" width="268" height="30" rx="10" fill="#1f6feb"/>
    <text x="214" y="458" fill="white" font-size="12" text-anchor="middle">Add a danger zone section</text>

    <!-- Typing indicator -->
    <circle cx="22" cy="495" r="12" fill="url(#avatar-grad)"/>
    <text x="22" y="500" fill="white" font-size="9" font-weight="700" text-anchor="middle">Co</text>
    <rect x="42" y="481" width="80" height="28" rx="8" fill="#21262d"/>
    <circle cx="62" cy="496" r="4" fill="#8b949e"/>
    <circle cx="76" cy="496" r="4" fill="#8b949e" fill-opacity="0.55"/>
    <circle cx="90" cy="496" r="4" fill="#8b949e" fill-opacity="0.25"/>

    <!-- Input bar -->
    <rect x="0" y="548" width="360" height="82" fill="#161b22"/>
    <rect y="548" width="360" height="1" fill="#30363d"/>
    <rect x="10" y="560" width="340" height="50" rx="8" fill="#0d1117" stroke="#30363d" stroke-width="1"/>
    <text x="22" y="590" fill="#6e7681" font-size="12">Describe changes to refine…</text>
    <rect x="316" y="566" width="28" height="28" rx="6" fill="url(#copilot-grad)"/>
    <text x="330" y="584" fill="white" font-size="14" text-anchor="middle">&#8593;</text>

    <!-- ── Right panel ─────────────────────────────────────────────────── -->

    <!-- Tab bar -->
    <rect x="361" y="92" width="839" height="38" fill="#161b22"/>
    <rect x="361" y="130" width="839" height="1" fill="#30363d"/>
    <!-- Code tab (inactive) -->
    <text x="401" y="116" fill="#8b949e" font-size="12" text-anchor="middle">Code</text>
    <!-- Preview tab (active) -->
    <rect x="441" y="92" width="82" height="38" fill="#0d1117"/>
    <text x="482" y="116" fill="#e6edf3" font-size="12" text-anchor="middle">Preview</text>
    <rect x="441" y="129" width="82" height="2" fill="#58a6ff"/>

    <!-- ── Rendered preview (settings page wireframe) ─────────────────── -->
    <rect x="361" y="131" width="839" height="499" fill="#0d1117"/>

    <!-- Page title -->
    <text x="430" y="163" fill="#e6edf3" font-size="19" font-weight="700">Settings</text>
    <text x="430" y="181" fill="#8b949e" font-size="11">Manage your account settings and preferences.</text>
    <rect x="430" y="190" width="730" height="1" fill="#30363d"/>

    <!-- ── General card ───────────────────────────────────────────────── -->
    <rect x="430" y="200" width="730" height="152" rx="8" fill="#161b22" stroke="#30363d" stroke-width="1"/>
    <!-- card header -->
    <text x="450" y="220" fill="#e6edf3" font-size="13" font-weight="600">General</text>
    <text x="450" y="235" fill="#8b949e" font-size="11">Update your display name and email address.</text>
    <rect x="431" y="244" width="728" height="1" fill="#30363d"/>
    <!-- Display name row -->
    <text x="450" y="265" fill="#8b949e" font-size="11">Display name</text>
    <rect x="610" y="252" width="520" height="24" rx="5" fill="#0d1117" stroke="#30363d" stroke-width="1"/>
    <text x="622" y="269" fill="#6e7681" font-size="11">chadradams</text>
    <!-- Email row -->
    <text x="450" y="297" fill="#8b949e" font-size="11">Email address</text>
    <rect x="610" y="284" width="520" height="24" rx="5" fill="#0d1117" stroke="#30363d" stroke-width="1"/>
    <text x="622" y="301" fill="#6e7681" font-size="11">chad@example.com</text>
    <!-- Save button -->
    <rect x="1062" y="316" width="88" height="26" rx="5" fill="#238636"/>
    <text x="1106" y="333" fill="white" font-size="11" font-weight="500" text-anchor="middle">Save changes</text>

    <!-- ── API Keys card ──────────────────────────────────────────────── -->
    <rect x="430" y="366" width="730" height="68" rx="8" fill="#161b22" stroke="#30363d" stroke-width="1"/>
    <text x="450" y="385" fill="#e6edf3" font-size="13" font-weight="600">API Keys</text>
    <rect x="431" y="393" width="728" height="1" fill="#30363d"/>
    <!-- Key row -->
    <rect x="450" y="401" width="20" height="20" rx="3" fill="#8b949e" fill-opacity="0.12"/>
    <text x="460" y="414" fill="#8b949e" font-size="10" text-anchor="middle">&#128273;</text>
    <text x="478" y="414" fill="#8b949e" font-size="11" font-family="monospace">sk-&#8226;&#8226;&#8226;&#8226;&#8226;&#8226;&#8226;&#8226;&#8226;&#8226;&#8226;&#8226;&#8226;&#8226;&#8226;&#8226;&#8226;&#8226;&#8226;&#8226;&#8226;&#8226;&#8226;&#8226;</text>
    <rect x="1022" y="401" width="70" height="22" rx="4" fill="none" stroke="#30363d" stroke-width="1"/>
    <text x="1057" y="416" fill="#8b949e" font-size="11" text-anchor="middle">Regenerate</text>
    <rect x="1098" y="401" width="52" height="22" rx="4" fill="none" stroke="#f85149" stroke-opacity="0.5" stroke-width="1"/>
    <text x="1124" y="416" fill="#f85149" font-size="11" text-anchor="middle">Revoke</text>

    <!-- ── Danger Zone card ───────────────────────────────────────────── -->
    <rect x="430" y="448" width="730" height="72" rx="8" fill="#161b22" stroke="#f85149" stroke-opacity="0.35" stroke-width="1"/>
    <!-- red left accent -->
    <rect x="430" y="448" width="3" height="72" rx="1" fill="#f85149" fill-opacity="0.7"/>
    <text x="452" y="467" fill="#f85149" font-size="11" font-weight="600">&#9888; Danger Zone</text>
    <rect x="431" y="473" width="728" height="1" fill="#f85149" fill-opacity="0.15"/>
    <!-- delete row -->
    <text x="452" y="493" fill="#e6edf3" font-size="11" font-weight="500">Delete this account</text>
    <text x="452" y="507" fill="#8b949e" font-size="10">Permanently removes your account and all associated data. This cannot be undone.</text>
    <rect x="1054" y="480" width="96" height="26" rx="5" fill="#b91c1c"/>
    <text x="1102" y="497" fill="white" font-size="11" font-weight="500" text-anchor="middle">Delete account</text>

    <!-- Panel border -->
    <rect width="1200" height="630" rx="10" fill="none" stroke="#30363d" stroke-width="1"/>
  </g>
</svg>
