<svg xmlns="http://www.w3.org/2000/svg" viewBox="0 0 1200 630" width="1200" height="630" font-family="-apple-system, BlinkMacSystemFont, 'Segoe UI', sans-serif">
  <defs>
    <clipPath id="screen-clip">
      <rect width="1200" height="630" rx="10"/>
    </clipPath>
    <linearGradient id="copilot-grad" x1="0%" y1="0%" x2="100%" y2="100%">
      <stop offset="0%" stop-color="#8957e5"/>
      <stop offset="100%" stop-color="#1f6feb"/>
    </linearGradient>
    <linearGradient id="avatar-grad" x1="0%" y1="0%" x2="100%" y2="100%">
      <stop offset="0%" stop-color="#8957e5"/>
      <stop offset="100%" stop-color="#1f6feb"/>
    </linearGradient>
    <linearGradient id="fade-bottom" x1="0" y1="0" x2="0" y2="1">
      <stop offset="0%" stop-color="#0d1117" stop-opacity="0"/>
      <stop offset="100%" stop-color="#0d1117" stop-opacity="1"/>
    </linearGradient>
  </defs>

  <g clip-path="url(#screen-clip)">
    <!-- Canvas background -->
    <rect width="1200" height="630" fill="#0d1117"/>

    <!-- Top nav -->
    <rect width="1200" height="52" fill="#161b22"/>
    <rect y="52" width="1200" height="1" fill="#30363d"/>

    <!-- GitHub logo -->
    <g transform="translate(20,13)">
      <path d="M12 0C5.37 0 0 5.37 0 12c0 5.31 3.435 9.795 8.205 11.385.6.105.825-.255.825-.57 0-.285-.015-1.23-.015-2.235-3.015.555-3.795-.735-4.035-1.41-.135-.345-.72-1.41-1.23-1.695-.42-.225-1.02-.78-.015-.795.945-.015 1.62.87 1.845 1.23 1.08 1.815 2.805 1.305 3.495.99.105-.78.42-1.305.765-1.605-2.67-.3-5.46-1.335-5.46-5.925 0-1.305.465-2.385 1.23-3.225-.12-.3-.54-1.53.12-3.18 0 0 1.005-.315 3.3 1.23.96-.27 1.98-.405 3-.405s2.04.135 3 .405c2.295-1.56 3.3-1.23 3.3-1.23.66 1.65.24 2.88.12 3.18.765.84 1.23 1.905 1.23 3.225 0 4.605-2.805 5.625-5.475 5.925.435.375.81 1.095.81 2.22 0 1.605-.015 2.895-.015 3.3 0 .315.225.69.825.57A12.02 12.02 0 0 0 24 12c0-6.63-5.37-12-12-12z" fill="#e6edf3"/>
    </g>
    <rect x="56" y="20" width="1" height="12" fill="#30363d"/>
    <text x="66" y="31" fill="#e6edf3" font-size="13" font-weight="600">Copilot Blueprint</text>
    <text x="218" y="31" fill="#8b949e" font-size="13">Dashboard</text>
    <text x="298" y="31" fill="#8b949e" font-size="13">Editor</text>
    <rect x="1058" y="14" width="122" height="26" rx="6" fill="url(#copilot-grad)"/>
    <text x="1119" y="31" fill="white" font-size="12" font-weight="500" text-anchor="middle">Connect GitHub</text>

    <!-- Editor sub-header -->
    <rect y="53" width="1200" height="38" fill="#161b22"/>
    <rect y="91" width="1200" height="1" fill="#30363d"/>
    <text x="16" y="77" fill="#58a6ff" font-size="12">GitHub</text>
    <text x="63" y="77" fill="#6e7681" font-size="12">›</text>
    <text x="73" y="77" fill="#58a6ff" font-size="12">Copilot Blueprint</text>
    <text x="176" y="77" fill="#6e7681" font-size="12">›</text>
    <text x="186" y="77" fill="#e6edf3" font-size="12">New blueprint</text>
    <rect x="1060" y="60" width="120" height="24" rx="5" fill="none" stroke="#30363d" stroke-width="1"/>
    <text x="1120" y="76" fill="#8b949e" font-size="11" text-anchor="middle">Save blueprint</text>

    <!-- Left panel background -->
    <rect x="0" y="92" width="360" height="538" fill="#161b22"/>
    <rect x="360" y="92" width="1" height="538" fill="#30363d"/>

    <!-- Context bar -->
    <rect x="0" y="92" width="360" height="44" fill="#0d1117"/>
    <rect y="136" width="360" height="1" fill="#30363d"/>
    <text x="12" y="119" fill="#8b949e" font-size="11">Repository context</text>
    <rect x="108" y="108" width="130" height="20" rx="10" fill="#58a6ff" fill-opacity="0.08" stroke="#58a6ff" stroke-opacity="0.19" stroke-width="1"/>
    <text x="173" y="122" fill="#58a6ff" font-size="10" text-anchor="middle">chadradams/api-service</text>
    <rect x="244" y="108" width="70" height="20" rx="10" fill="#d29922" fill-opacity="0.08" stroke="#d29922" stroke-opacity="0.19" stroke-width="1"/>
    <text x="279" y="122" fill="#d29922" font-size="10" text-anchor="middle">Issue #42</text>

    <!-- Chat header -->
    <rect x="0" y="137" width="360" height="42" fill="#161b22"/>
    <rect y="179" width="360" height="1" fill="#30363d"/>
    <text x="12" y="163" fill="#e6edf3" font-size="13" font-weight="600">Blueprint chat</text>
    <rect x="228" y="147" width="120" height="22" rx="11" fill="#58a6ff" fill-opacity="0.09" stroke="#58a6ff" stroke-opacity="0.21" stroke-width="1"/>
    <rect x="237" y="153" width="10" height="10" rx="2" fill="#58a6ff" fill-opacity="0.7"/>
    <text x="253" y="162" fill="#58a6ff" font-size="10" font-weight="600">UI Wireframe · HTML</text>

    <!-- User message 1 -->
    <rect x="80" y="192" width="268" height="52" rx="10" fill="#1f6feb"/>
    <text x="214" y="213" fill="white" font-size="12" text-anchor="middle">Design a settings page for</text>
    <text x="214" y="229" fill="white" font-size="12" text-anchor="middle">the API service dashboard</text>
    <text x="340" y="252" fill="#6e7681" font-size="10" text-anchor="end">You</text>

    <!-- Assistant message -->
    <circle cx="22" cy="280" r="12" fill="url(#avatar-grad)"/>
    <text x="22" y="285" fill="white" font-size="9" text-anchor="middle" font-weight="700">Co</text>
    <rect x="42" y="266" width="303" height="42" rx="10" fill="#21262d"/>
    <text x="55" y="283" fill="#8b949e" font-size="11">Let me clarify a few things:</text>
    <text x="55" y="298" fill="#8b949e" font-size="11">Should this match your existing nav style?</text>

    <!-- User message 2 -->
    <rect x="80" y="322" width="268" height="30" rx="10" fill="#1f6feb"/>
    <text x="214" y="342" fill="white" font-size="12" text-anchor="middle">Yes, GitHub Primer dark theme</text>

    <!-- Artifact notification card -->
    <rect x="42" y="366" width="303" height="56" rx="8" fill="#21262d" stroke="#3fb950" stroke-opacity="0.19" stroke-width="1"/>
    <rect x="42" y="366" width="3" height="56" rx="1" fill="#3fb950"/>
    <rect x="54" y="378" width="20" height="20" rx="4" fill="#3fb950" fill-opacity="0.13"/>
    <text x="64" y="392" fill="#3fb950" font-size="12" text-anchor="middle">&#9649;</text>
    <text x="82" y="384" fill="#e6edf3" font-size="11" font-weight="600">Wireframe generated</text>
    <text x="82" y="399" fill="#8b949e" font-size="10">UI Wireframe · HTML · 94 lines</text>
    <circle cx="328" cy="387" r="8" fill="#3fb950" fill-opacity="0.13"/>
    <text x="328" y="391" fill="#3fb950" font-size="11" text-anchor="middle">&#10003;</text>

    <!-- User message 3 -->
    <rect x="80" y="438" width="268" height="30" rx="10" fill="#1f6feb"/>
    <text x="214" y="458" fill="white" font-size="12" text-anchor="middle">Add a danger zone section</text>

    <!-- Typing indicator -->
    <circle cx="22" cy="495" r="12" fill="url(#avatar-grad)"/>
    <text x="22" y="500" fill="white" font-size="9" text-anchor="middle" font-weight="700">Co</text>
    <rect x="42" y="481" width="80" height="28" rx="8" fill="#21262d"/>
    <circle cx="62" cy="496" r="4" fill="#8b949e"/>
    <circle cx="76" cy="496" r="4" fill="#8b949e" fill-opacity="0.6"/>
    <circle cx="90" cy="496" r="4" fill="#8b949e" fill-opacity="0.3"/>

    <!-- Input area -->
    <rect x="0" y="548" width="360" height="82" fill="#161b22"/>
    <rect y="548" width="360" height="1" fill="#30363d"/>
    <rect x="10" y="560" width="340" height="50" rx="8" fill="#0d1117" stroke="#30363d" stroke-width="1"/>
    <text x="22" y="590" fill="#6e7681" font-size="12">Describe changes to refine…</text>
    <rect x="316" y="566" width="28" height="28" rx="6" fill="url(#copilot-grad)"/>
    <text x="330" y="584" fill="white" font-size="14" text-anchor="middle">&#8593;</text>

    <!-- Right panel: editor tabs -->
    <rect x="361" y="92" width="839" height="38" fill="#161b22"/>
    <rect x="361" y="130" width="839" height="1" fill="#30363d"/>
    <rect x="361" y="92" width="80" height="38" fill="#0d1117"/>
    <text x="401" y="116" fill="#e6edf3" font-size="12" text-anchor="middle">Code</text>
    <rect x="361" y="129" width="80" height="2" fill="#58a6ff"/>
    <text x="490" y="116" fill="#8b949e" font-size="12">Preview</text>
    <rect x="1098" y="101" width="52" height="22" rx="4" fill="none" stroke="#30363d" stroke-width="1"/>
    <text x="1124" y="116" fill="#8b949e" font-size="11" text-anchor="middle">Copy</text>
    <rect x="1156" y="101" width="32" height="22" rx="4" fill="none" stroke="#30363d" stroke-width="1"/>
    <text x="1172" y="116" fill="#8b949e" font-size="11" text-anchor="middle">&#8595;</text>

    <!-- Editor body -->
    <rect x="361" y="131" width="839" height="499" fill="#0d1117"/>
    <rect x="361" y="131" width="44" height="499" fill="#0d1117"/>
    <rect x="405" y="131" width="1" height="499" fill="#21262d"/>

    <!-- Line numbers -->
    <text x="396" y="152" fill="#3d444d" font-size="12" text-anchor="end">1</text>
    <text x="396" y="170" fill="#3d444d" font-size="12" text-anchor="end">2</text>
    <text x="396" y="188" fill="#3d444d" font-size="12" text-anchor="end">3</text>
    <text x="396" y="206" fill="#3d444d" font-size="12" text-anchor="end">4</text>
    <text x="396" y="224" fill="#3d444d" font-size="12" text-anchor="end">5</text>
    <text x="396" y="242" fill="#3d444d" font-size="12" text-anchor="end">6</text>
    <text x="396" y="260" fill="#3d444d" font-size="12" text-anchor="end">7</text>
    <text x="396" y="278" fill="#3d444d" font-size="12" text-anchor="end">8</text>
    <text x="396" y="296" fill="#3d444d" font-size="12" text-anchor="end">9</text>
    <text x="396" y="314" fill="#3d444d" font-size="12" text-anchor="end">10</text>
    <text x="396" y="332" fill="#3d444d" font-size="12" text-anchor="end">11</text>
    <text x="396" y="350" fill="#3d444d" font-size="12" text-anchor="end">12</text>
    <text x="396" y="368" fill="#3d444d" font-size="12" text-anchor="end">13</text>
    <text x="396" y="386" fill="#3d444d" font-size="12" text-anchor="end">14</text>
    <text x="396" y="404" fill="#3d444d" font-size="12" text-anchor="end">15</text>
    <text x="396" y="422" fill="#3d444d" font-size="12" text-anchor="end">16</text>
    <text x="396" y="440" fill="#3d444d" font-size="12" text-anchor="end">17</text>
    <text x="396" y="458" fill="#3d444d" font-size="12" text-anchor="end">18</text>
    <text x="396" y="476" fill="#3d444d" font-size="12" text-anchor="end">19</text>
    <text x="396" y="494" fill="#3d444d" font-size="12" text-anchor="end">20</text>
    <text x="396" y="512" fill="#3d444d" font-size="12" text-anchor="end">21</text>
    <text x="396" y="530" fill="#3d444d" font-size="12" text-anchor="end">22</text>
    <text x="396" y="548" fill="#3d444d" font-size="12" text-anchor="end">23</text>
    <text x="396" y="566" fill="#3d444d" font-size="12" text-anchor="end">24</text>
    <text x="396" y="584" fill="#3d444d" font-size="12" text-anchor="end">25</text>

    <!-- Code lines (no HTML entities in tag brackets — use unicode lookalikes or plain text) -->
    <text x="418" y="152" fill="#8b949e" font-size="12" font-family="monospace">&lt;!DOCTYPE html&gt;</text>
    <text x="418" y="170" font-size="12" font-family="monospace">
      <tspan fill="#8b949e">&lt;</tspan><tspan fill="#7ee787">html</tspan><tspan fill="#8b949e"> </tspan><tspan fill="#79c0ff">lang</tspan><tspan fill="#8b949e">=</tspan><tspan fill="#a5d6ff">"en"</tspan><tspan fill="#8b949e">&gt;</tspan>
    </text>
    <text x="418" y="188" font-size="12" font-family="monospace">
      <tspan fill="#8b949e">&lt;</tspan><tspan fill="#7ee787">head</tspan><tspan fill="#8b949e">&gt;</tspan>
    </text>
    <text x="418" y="206" font-size="12" font-family="monospace">
      <tspan fill="#8b949e">  &lt;</tspan><tspan fill="#7ee787">style</tspan><tspan fill="#8b949e">&gt;</tspan>
    </text>
    <text x="418" y="224" font-size="12" font-family="monospace">
      <tspan fill="#8b949e">    </tspan><tspan fill="#ff7b72">body</tspan><tspan fill="#8b949e"> {</tspan>
    </text>
    <text x="418" y="242" font-size="12" font-family="monospace">
      <tspan fill="#8b949e">      </tspan><tspan fill="#79c0ff">background</tspan><tspan fill="#8b949e">: </tspan><tspan fill="#a5d6ff">#0d1117</tspan><tspan fill="#8b949e">;</tspan>
    </text>
    <text x="418" y="260" font-size="12" font-family="monospace">
      <tspan fill="#8b949e">      </tspan><tspan fill="#79c0ff">color</tspan><tspan fill="#8b949e">: </tspan><tspan fill="#a5d6ff">#e6edf3</tspan><tspan fill="#8b949e">;</tspan>
    </text>
    <text x="418" y="278" font-size="12" font-family="monospace">
      <tspan fill="#8b949e">    }</tspan>
    </text>
    <text x="418" y="296" font-size="12" font-family="monospace">
      <tspan fill="#8b949e">    </tspan><tspan fill="#ff7b72">.settings-page</tspan><tspan fill="#8b949e"> {</tspan>
    </text>
    <text x="418" y="314" font-size="12" font-family="monospace">
      <tspan fill="#8b949e">      </tspan><tspan fill="#79c0ff">max-width</tspan><tspan fill="#8b949e">: </tspan><tspan fill="#a5d6ff">800px</tspan><tspan fill="#8b949e">;</tspan>
    </text>
    <text x="418" y="332" font-size="12" font-family="monospace">
      <tspan fill="#8b949e">      </tspan><tspan fill="#79c0ff">padding</tspan><tspan fill="#8b949e">: </tspan><tspan fill="#a5d6ff">24px</tspan><tspan fill="#8b949e">;</tspan>
    </text>
    <text x="418" y="350" font-size="12" font-family="monospace">
      <tspan fill="#8b949e">    }</tspan>
    </text>
    <text x="418" y="368" font-size="12" font-family="monospace">
      <tspan fill="#8b949e">    </tspan><tspan fill="#ff7b72">.section</tspan><tspan fill="#8b949e"> {</tspan>
    </text>
    <text x="418" y="386" font-size="12" font-family="monospace">
      <tspan fill="#8b949e">      </tspan><tspan fill="#79c0ff">background</tspan><tspan fill="#8b949e">: </tspan><tspan fill="#a5d6ff">#161b22</tspan><tspan fill="#8b949e">;</tspan>
    </text>
    <text x="418" y="404" font-size="12" font-family="monospace">
      <tspan fill="#8b949e">      </tspan><tspan fill="#79c0ff">border</tspan><tspan fill="#8b949e">: </tspan><tspan fill="#a5d6ff">1px solid #30363d</tspan><tspan fill="#8b949e">;</tspan>
    </text>
    <text x="418" y="422" font-size="12" font-family="monospace">
      <tspan fill="#8b949e">      </tspan><tspan fill="#79c0ff">border-radius</tspan><tspan fill="#8b949e">: </tspan><tspan fill="#a5d6ff">8px</tspan><tspan fill="#8b949e">;</tspan>
    </text>
    <text x="418" y="440" font-size="12" font-family="monospace">
      <tspan fill="#8b949e">    }</tspan>
    </text>
    <text x="418" y="458" font-size="12" font-family="monospace">
      <tspan fill="#8b949e">    </tspan><tspan fill="#ff7b72">.danger-zone</tspan><tspan fill="#8b949e"> {</tspan>
    </text>
    <text x="418" y="476" font-size="12" font-family="monospace">
      <tspan fill="#8b949e">      </tspan><tspan fill="#79c0ff">border-color</tspan><tspan fill="#8b949e">: </tspan><tspan fill="#a5d6ff">#f85149</tspan><tspan fill="#8b949e">;</tspan>
    </text>
    <text x="418" y="494" font-size="12" font-family="monospace">
      <tspan fill="#8b949e">    }</tspan>
    </text>
    <text x="418" y="512" font-size="12" font-family="monospace">
      <tspan fill="#8b949e">  &lt;/</tspan><tspan fill="#7ee787">style</tspan><tspan fill="#8b949e">&gt;</tspan>
    </text>
    <text x="418" y="530" font-size="12" font-family="monospace">
      <tspan fill="#8b949e">&lt;/</tspan><tspan fill="#7ee787">head</tspan><tspan fill="#8b949e">&gt;</tspan>
    </text>
    <text x="418" y="548" font-size="12" font-family="monospace">
      <tspan fill="#8b949e">&lt;</tspan><tspan fill="#7ee787">body</tspan><tspan fill="#8b949e">&gt;</tspan>
    </text>
    <text x="418" y="566" font-size="12" font-family="monospace">
      <tspan fill="#8b949e">  &lt;</tspan><tspan fill="#7ee787">div</tspan><tspan fill="#8b949e"> </tspan><tspan fill="#79c0ff">class</tspan><tspan fill="#8b949e">=</tspan><tspan fill="#a5d6ff">"settings-page"</tspan><tspan fill="#8b949e">&gt;</tspan>
    </text>
    <text x="418" y="584" font-size="12" font-family="monospace">
      <tspan fill="#8b949e">    &lt;</tspan><tspan fill="#7ee787">h1</tspan><tspan fill="#8b949e">&gt;</tspan><tspan fill="#e6edf3">Settings</tspan><tspan fill="#8b949e">&lt;/</tspan><tspan fill="#7ee787">h1</tspan><tspan fill="#8b949e">&gt;</tspan>
    </text>

    <!-- Cursor (static, no animation) -->
    <rect x="504" y="573" width="2" height="14" fill="#e6edf3" opacity="0.8"/>

    <!-- Fade overlay at bottom -->
    <rect x="361" y="560" width="839" height="70" fill="url(#fade-bottom)"/>

    <!-- Screen border -->
    <rect width="1200" height="630" rx="10" fill="none" stroke="#30363d" stroke-width="1"/>
  </g>
</svg>
